<svg xmlns="http://www.w3.org/2000/svg" xmlns:xlink="http://www.w3.org/1999/xlink"><symbol id="icon-building" viewBox="0 0 45 48"><path d="M40.312.667H17.023a4.687 4.687 0 00-4.69 4.69V18.51L1.362 29.34A2.333 2.333 0 003 33.333V45a2.333 2.333 0 002.333 2.333h37.334A2.333 2.333 0 0045 45V5.354A4.685 4.685 0 0040.312.667zM21.485 31.259v11.408H7.667V29.675l6.97-6.881 6.848 7.007v1.458zM26.333 17h-4.666v-4.667h4.666V17zm9.334 18.667H31V31h4.667v4.667zm0-9.334H31v-4.666h4.667v4.666zm0-9.333H31v-4.667h4.667V17z"/></symbol><symbol id="icon-check" viewBox="0 0 78 60"><path d="M27.225 58.587L.487 31.992a1.65 1.65 0 010-2.34l6.75-6.757a1.648 1.648 0 012.333 0l17.602 17.497a1.657 1.657 0 002.34-.007l38.895-39.27a1.659 1.659 0 012.348-.007l6.757 6.757c.645.645.645 1.688.008 2.332L35.145 52.956l.007.008-5.587 5.617a1.664 1.664 0 01-2.34.008z"/></symbol><symbol id="icon-checkincircle" viewBox="0 0 56 56"><path fill-rule="evenodd" clip-rule="evenodd" d="M28 2.333C13.825 2.333 2.333 13.825 2.333 28S13.825 53.667 28 53.667 53.667 42.175 53.667 28 42.175 2.333 28 2.333zM39.125 23.66a2.334 2.334 0 10-3.584-2.987L25.508 32.711l-5.192-5.194a2.334 2.334 0 00-3.299 3.3l7 7a2.335 2.335 0 003.442-.157l11.666-14z"/></symbol><symbol id="icon-drafting" viewBox="0 0 56 56"><path d="M37.893 26.857l3.664-3.664-8.75-8.75-3.664 3.664-9.66-9.637a4.676 4.676 0 00-6.603 0l-4.433 4.433a4.676 4.676 0 000 6.604l9.636 9.636L7 40.25V49h8.75l11.107-11.107 9.636 9.637c2.217 2.217 5.204 1.4 6.604 0l4.433-4.433a4.676 4.676 0 000-6.604l-9.637-9.636zM21.42 25.83l-9.66-9.637 4.41-4.433 2.963 2.963L16.38 17.5l3.29 3.29 2.777-2.777 3.383 3.384-4.41 4.433zm18.387 18.41l-9.637-9.637 4.433-4.433 3.384 3.383-2.777 2.777 3.29 3.29 2.777-2.777 2.963 2.964-4.433 4.433zm8.516-27.813a2.321 2.321 0 000-3.29l-5.46-5.46c-1.096-1.097-2.613-.677-3.29 0l-4.27 4.27 8.75 8.75 4.27-4.27z"/></symbol><symbol id="icon-logo" viewBox="0 0 214 28"><path d="M5.037 27.848c-1.704 0-3.305-.239-4.803-.716 0-.51.119-1.226.357-2.146.239-.954.528-1.754.869-2.401 1.124.954 2.214 1.72 3.27 2.3 1.09.544 1.993.817 2.708.817.477-.341.818-.886 1.022-1.635.239-.75.392-1.993.46-3.73.068-1.772.102-4.582.102-8.431 0-6.064-.34-9.93-1.022-11.6C8.92.103 9.857 0 10.81 0c.886 0 1.857.102 2.913.307-.238 2.282-.358 7.392-.358 15.329 0 8.141-2.776 12.212-8.328 12.212zM21.784 28.001a23.486 23.486 0 00-3.679-3.679 22.388 22.388 0 013.679-3.73c.92 1.124 2.146 2.367 3.679 3.73-1.226 1.465-2.453 2.691-3.679 3.679zM37.98 27.797c-2.76 0-4.889-.886-6.387-2.657-1.5-1.806-2.249-4.36-2.249-7.665 0-2.248.443-4.24 1.329-5.978.92-1.772 2.197-3.151 3.832-4.14 1.635-.987 3.492-1.48 5.57-1.48 2.384 0 4.411.408 6.08 1.225 0 .58-.17 1.329-.51 2.249-.307.885-.665 1.652-1.074 2.3-1.362-1.16-2.657-2.045-3.883-2.658-1.227-.647-2.248-.97-3.066-.97-1.022.578-1.874 1.617-2.555 3.116-.681 1.465-1.022 3.083-1.022 4.854 0 2.93.46 5.025 1.38 6.285.954 1.26 2.52 1.89 4.7 1.89 2.487 0 4.6-.63 6.337-1.89l.408.869c-.987 1.397-2.299 2.52-3.934 3.372-1.635.852-3.287 1.278-4.956 1.278zM59.701 27.797c-2.793 0-5.041-.954-6.744-2.862-1.704-1.907-2.555-4.411-2.555-7.511 0-2.248.46-4.241 1.38-5.978.953-1.772 2.265-3.134 3.934-4.088 1.703-.988 3.628-1.482 5.774-1.482 1.907 0 3.594.443 5.058 1.329 1.465.851 2.59 2.06 3.373 3.627.817 1.567 1.226 3.373 1.226 5.417 0 2.248-.494 4.258-1.482 6.03-.954 1.736-2.3 3.1-4.036 4.087-1.738.954-3.713 1.43-5.928 1.43zm.92-2.146c1.942 0 3.458-.648 4.548-1.942 1.09-1.329 1.635-3.185 1.635-5.57 0-2.112-.494-3.934-1.482-5.467-.988-1.533-2.35-2.572-4.088-3.117-1.976 0-3.56.681-4.752 2.044-1.158 1.329-1.737 3.134-1.737 5.416 0 2.657.545 4.77 1.635 6.336 1.124 1.533 2.538 2.3 4.241 2.3zM81.07 27.541c-.715 0-1.669-.102-2.86-.306.238-3.407.357-7.035.357-10.884 0-1.874-.068-3.304-.204-4.292-.103-.988-.29-1.771-.563-2.35-.238-.58-.647-1.176-1.226-1.789.545-.647 1.124-1.107 1.737-1.38.613-.306 1.176-.46 1.687-.46 1.805 0 2.844 1.022 3.117 3.066a9.695 9.695 0 013.116-2.401c1.227-.58 2.47-.869 3.73-.869 3.986 0 5.979 2.35 5.979 7.051l-.102 3.22a42.71 42.71 0 00-.154 3.423c0 3.509.358 6.064 1.073 7.665-.954.204-1.856.306-2.708.306-.886 0-1.907-.102-3.066-.306.239-4.122.358-8.585.358-13.388 0-1.362-.272-2.333-.817-2.912-.546-.614-1.448-.92-2.709-.92-1.873 0-3.423.392-4.65 1.175l-.05 2.197c-.103 1.738-.154 3.799-.154 6.183 0 3.577.34 6.132 1.022 7.665a14.866 14.866 0 01-2.912.306zM109.605 27.797c-3.202 0-5.774-.614-7.716-1.84 0-.647.068-1.26.205-1.84.136-.578.374-1.209.715-1.89.647.852 1.499 1.516 2.555 1.993a8.573 8.573 0 003.475.715c3.236 0 4.854-.902 4.854-2.708 0-.75-.375-1.38-1.124-1.89-.716-.511-1.823-1.09-3.322-1.738-1.499-.681-2.708-1.277-3.628-1.788a8.157 8.157 0 01-2.401-2.197c-.681-.92-1.022-2.044-1.022-3.373 0-1.6.698-2.895 2.095-3.883 1.431-.988 3.287-1.482 5.569-1.482 3.032 0 5.621.409 7.767 1.226 0 .545-.153 1.278-.46 2.198a11.97 11.97 0 01-1.124 2.401c-1.226-1.124-2.418-2.01-3.577-2.657-1.158-.681-2.129-1.022-2.912-1.022-.818.17-1.482.494-1.993.971-.511.443-.766.937-.766 1.482 0 .954.391 1.72 1.175 2.3.783.578 2.01 1.26 3.679 2.043 1.396.613 2.538 1.192 3.423 1.737.92.511 1.687 1.21 2.3 2.095.647.852.971 1.89.971 3.117 0 1.908-.767 3.39-2.3 4.446-1.499 1.056-3.645 1.584-6.438 1.584zM128.136 27.695c-1.192 0-2.027-.29-2.503-.87-.477-.612-.716-1.668-.716-3.167 0-1.056.034-2.776.102-5.161.069-2.589.103-4.735.103-6.438 0-.818-.034-1.601-.103-2.35-1.362 0-2.282-.086-2.759-.256-.443-.204-.664-.545-.664-1.022 2.214-1.26 4.309-2.98 6.285-5.16l1.226.152c.136 1.159.222 2.35.256 3.577 2.282-.034 3.951-.17 5.007-.409 0 .716-.068 1.346-.204 1.891a7.536 7.536 0 01-.665 1.686c-.987-.374-2.401-.579-4.241-.613a72.412 72.412 0 00-.153 4.803c0 4.19.256 7.375.767 9.555 1.567-.102 2.827-.29 3.781-.562l.306 1.175c-.613.954-1.464 1.72-2.554 2.3-1.091.579-2.181.869-3.271.869zM143.347 27.541c-.851 0-1.839-.102-2.963-.306.238-3.407.357-7.035.357-10.884 0-1.874-.068-3.304-.204-4.292-.102-.988-.29-1.771-.562-2.35-.239-.58-.647-1.176-1.227-1.789.546-.613 1.142-1.073 1.789-1.38.647-.306 1.226-.46 1.737-.46 1.942 0 2.964 1.26 3.066 3.782.886-1.09 1.822-1.976 2.81-2.657 1.022-.716 2.18-1.244 3.475-1.584.238.545.443 1.328.613 2.35.204 1.022.307 1.959.307 2.81-.409-.068-.988-.102-1.738-.102-1.09 0-2.129.136-3.117.409-.987.239-1.788.545-2.401.92l-.051 1.584a200.238 200.238 0 00-.102 5.978c0 3.577.34 6.132 1.022 7.665-1.022.204-1.959.306-2.811.306zM162.656 27.797c-3.917 0-5.876-2.35-5.876-7.052l.102-3.219.102-3.423c0-3.339-.323-5.723-.97-7.154 1.669-.681 3.542-1.022 5.62-1.022-.204 4.156-.306 8.925-.306 14.307 0 1.363.289 2.368.868 3.015.579.613 1.516.92 2.811.92 1.669 0 3.185-.392 4.547-1.175 0-2.283.051-4.31.154-6.081l.051-2.81c0-3.339-.324-5.723-.971-7.154 1.669-.681 3.56-1.022 5.672-1.022-.137 2.35-.273 5.144-.409 8.38-.136 3.202-.205 5.348-.205 6.438 0 1.227.137 2.197.409 2.913.273.715.801 1.482 1.584 2.3-1.226 1.021-2.589 1.634-4.088 1.839-1.022-.716-1.686-1.738-1.992-3.066-.92.954-2.01 1.703-3.271 2.248a9.333 9.333 0 01-3.832.818zM188.875 27.797c-2.759 0-4.888-.886-6.387-2.657-1.499-1.806-2.249-4.36-2.249-7.665 0-2.248.443-4.24 1.329-5.978.92-1.772 2.197-3.151 3.832-4.14 1.635-.987 3.492-1.48 5.57-1.48 2.384 0 4.411.408 6.08 1.225 0 .58-.17 1.329-.511 2.249-.306.885-.664 1.652-1.073 2.3-1.362-1.16-2.657-2.045-3.883-2.658-1.226-.647-2.248-.97-3.066-.97-1.022.578-1.873 1.617-2.555 3.116-.681 1.465-1.022 3.083-1.022 4.854 0 2.93.46 5.025 1.38 6.285.954 1.26 2.521 1.89 4.701 1.89 2.487 0 4.599-.63 6.336-1.89l.409.869c-.988 1.397-2.3 2.52-3.935 3.372-1.635.852-3.287 1.278-4.956 1.278zM207.326 27.695c-1.192 0-2.026-.29-2.503-.87-.477-.612-.716-1.668-.716-3.167 0-1.056.034-2.776.102-5.161.069-2.589.103-4.735.103-6.438 0-.818-.034-1.601-.103-2.35-1.362 0-2.282-.086-2.759-.256-.443-.204-.664-.545-.664-1.022 2.214-1.26 4.309-2.98 6.285-5.16l1.226.152c.136 1.159.222 2.35.256 3.577 2.282-.034 3.951-.17 5.007-.409 0 .716-.068 1.346-.204 1.891a7.53 7.53 0 01-.664 1.686c-.988-.374-2.402-.579-4.242-.613a72.412 72.412 0 00-.153 4.803c0 4.19.256 7.375.767 9.555 1.567-.102 2.827-.29 3.781-.562l.306 1.175c-.613.954-1.464 1.72-2.554 2.3-1.091.579-2.181.869-3.271.869z" fill-opacity="0.3"/></symbol><symbol id="icon-logo2" viewBox="0 0 89 30"><path d="M15.786.726c.669 1.586 1.491 3.528 2.467 5.826.99 2.299 2.006 4.664 3.05 7.097a954.984 954.984 0 013.048 7.097c.99 2.298 1.826 4.234 2.508 5.806.2.498.594.948 1.183 1.351.307.202.608.37.903.504.307.135.555.262.742.383.133.094.22.189.26.283a.36.36 0 01.04.16c0 .041-.013.088-.04.142-.04.08-.12.121-.24.121h-6.78c-.12 0-.24-.04-.361-.121-.134-.094-.214-.195-.24-.302a.218.218 0 01-.04-.121c0-.121.08-.249.24-.383a4.56 4.56 0 01.441-.383c.174-.135.301-.316.381-.545.04-.107.06-.228.06-.363a2.03 2.03 0 00-.16-.746l-2.969-6.895H8.585l-1.444 3.468a371.648 371.648 0 01-1.424 3.427c-.12.27-.188.511-.2.726-.014.094-.02.188-.02.282 0 .135.02.262.06.383.04.175.106.323.2.444.093.107.16.222.2.343.014.107.02.181.02.221 0 .04-.013.088-.04.142-.093.282-.24.423-.44.423H.32c-.134 0-.227-.04-.28-.121a.356.356 0 00-.041-.1c0-.028.013-.095.04-.202.08-.175.308-.35.682-.525.2-.094.415-.194.642-.302.24-.121.481-.262.722-.423.495-.35.856-.773 1.083-1.27L14.542.725h1.244zm3.791 17.278L14.342 5.726c-.856 2.056-1.712 4.106-2.568 6.149l-2.527 6.129h10.33zM39.034 17.5v9.052c0 .874.328 1.432.983 1.674.668.228 1.003.51 1.003.847 0 .282-.134.423-.401.423h-6.8c-.281 0-.421-.141-.421-.423 0-.336.334-.619 1.002-.847.67-.242 1.003-.8 1.003-1.674V13.65c0-.847-.334-1.39-1.002-1.633-.67-.242-1.003-.537-1.003-.887 0-.282.14-.423.42-.423.883-.04 1.753-.175 2.608-.404.87-.242 1.739-.51 2.608-.806v2.661l2.788-1.068c1.03-.39 1.832-.68 2.407-.867.174-.054.381-.08.622-.08.495 0 1.123.133 1.886.402l-.442 5.06h-.922c-.522-1.961-1.525-2.943-3.01-2.943-.146 0-.293.007-.44.02-1.017.121-1.746.646-2.187 1.573-.428.914-.662 1.996-.702 3.246zM58.772 10.222h.42c2.18 0 4.187.591 6.018 1.774l-.34 3.407c-.027.175-.114.262-.261.262h-.06c-.134-.013-.255-.147-.362-.403-.534-1.17-1.236-2.016-2.106-2.54-.856-.511-1.899-.766-3.129-.766h-.481c-1.458.08-2.588.504-3.39 1.27a6.368 6.368 0 00-1.565 2.52c-.347.981-.521 2.077-.521 3.286 0 .404.02.813.06 1.23.134 2.003.675 3.643 1.625 4.92 1.243 1.68 2.634 2.634 4.172 2.862.254.04.515.06.782.06 1.204 0 2.534-.402 3.992-1.209.762-.416 1.277-.625 1.544-.625.067 0 .12.014.16.04.028.027.041.081.041.162 0 .161-.08.416-.24.766-.201.403-.429.719-.683.948-.762.685-1.698 1.155-2.808 1.41-1.11.27-2.166.404-3.17.404-2.486-.013-4.58-.706-6.277-2.077-1.685-1.384-2.642-3.36-2.869-5.927-.053-.591-.08-1.17-.08-1.734 0-.726.047-1.431.14-2.117.174-1.183.629-2.365 1.364-3.548.776-1.25 1.852-2.272 3.23-3.065 1.39-.793 2.988-1.23 4.794-1.31zM73.475 26.552c0 .874.334 1.432 1.003 1.674.668.228 1.003.51 1.003.847 0 .282-.134.423-.402.423h-6.8c-.28 0-.42-.141-.42-.423 0-.336.334-.619 1.002-.847.669-.242 1.003-.8 1.003-1.674V4.153c0-.86-.334-1.411-1.003-1.653-.669-.242-1.003-.538-1.003-.887 0-.282.14-.423.421-.423.883-.04 1.752-.175 2.608-.404.87-.228 1.732-.49 2.588-.786v12.298l1.945-.746a50.03 50.03 0 011.605-.584c1.23-.43 2.507-.713 3.831-.847.16-.014.328-.02.502-.02 1.123 0 2.193.383 3.209 1.149 1.618 1.25 2.427 3.931 2.427 8.044v7.258c0 .874.335 1.432 1.003 1.674.669.228 1.003.51 1.003.847 0 .282-.134.423-.401.423h-4.874c-.228 0-.341-.087-.341-.262v-9.94c0-2.943-.609-5.013-1.826-6.21-.775-.765-1.725-1.149-2.848-1.149-.642 0-1.344.128-2.106.383-.294.108-.669.25-1.123.424-.442.161-.823.302-1.144.423-.32.121-.608.229-.862.323v13.064z" fill-opacity="0.3"/></symbol><symbol id="icon-logo3" viewBox="0 0 127 28"><path d="M7.562 19.38l.502 3.456.735-3.114 5.16-18.282h2.904l5.035 18.282.717 3.168.556-3.527L27.22 1.44h3.458l-6.325 26.2h-3.137L15.841 8.548 15.43 6.55l-.412 1.998L9.444 27.64H6.308L0 1.44h3.44l4.122 17.94zM37.31 10.527c1.47-1.811 3.38-2.717 5.734-2.717 4.098 0 6.165 2.321 6.2 6.964V27.64H45.93V14.756c-.012-1.404-.334-2.441-.967-3.113-.622-.672-1.595-1.008-2.921-1.008-1.076 0-2.02.288-2.832.864a5.859 5.859 0 00-1.9 2.267V27.64h-3.314V0h3.315v10.527zM57.81 27.64h-3.315V8.17h3.315v19.47zM54.226 3.005c0-.54.162-.996.484-1.367.335-.372.825-.558 1.47-.558s1.135.186 1.47.558c.334.371.5.827.5 1.367s-.166.99-.5 1.35c-.335.36-.825.54-1.47.54s-1.135-.18-1.47-.54c-.322-.36-.484-.81-.484-1.35zM69.638 15.278l4.3-7.108h3.871l-6.343 9.627 6.54 9.843h-3.835l-4.48-7.288-4.48 7.288H61.36l6.54-9.843-6.343-9.627h3.835l4.247 7.108zM81.411 25.895c0-.576.167-1.056.502-1.44.346-.384.86-.576 1.541-.576.681 0 1.195.192 1.541.576.359.384.538.864.538 1.44 0 .551-.18 1.013-.538 1.385-.346.372-.86.558-1.54.558-.682 0-1.196-.186-1.542-.558-.335-.372-.502-.834-.502-1.385zM98.794 25.283c1.182 0 2.216-.36 3.1-1.08.884-.72 1.374-1.62 1.469-2.7h3.136c-.059 1.116-.442 2.178-1.147 3.186-.704 1.008-1.648 1.811-2.831 2.411-1.171.6-2.413.9-3.727.9-2.64 0-4.743-.882-6.308-2.645-1.553-1.776-2.33-4.199-2.33-7.27v-.558c0-1.896.347-3.581 1.04-5.057.692-1.475 1.684-2.62 2.974-3.437 1.302-.815 2.838-1.223 4.606-1.223 2.174 0 3.978.654 5.412 1.961 1.445 1.308 2.216 3.005 2.311 5.093h-3.136c-.095-1.26-.573-2.292-1.433-3.095-.848-.816-1.9-1.224-3.154-1.224-1.685 0-2.993.612-3.925 1.835-.92 1.212-1.38 2.97-1.38 5.273v.63c0 2.243.46 3.97 1.38 5.182.92 1.212 2.234 1.818 3.943 1.818zM109.349 17.725c0-1.908.37-3.623 1.111-5.147.752-1.523 1.792-2.699 3.118-3.527 1.338-.827 2.861-1.241 4.569-1.241 2.641 0 4.773.918 6.398 2.753 1.637 1.835 2.455 4.277 2.455 7.324v.234c0 1.895-.364 3.599-1.093 5.11-.717 1.5-1.75 2.67-3.1 3.51-1.338.84-2.879 1.259-4.624 1.259-2.628 0-4.76-.918-6.397-2.753-1.625-1.836-2.437-4.265-2.437-7.288v-.234zm3.333.396c0 2.16.496 3.893 1.487 5.2 1.004 1.308 2.342 1.962 4.014 1.962 1.685 0 3.023-.66 4.014-1.98.992-1.331 1.488-3.19 1.488-5.578 0-2.136-.508-3.863-1.523-5.183-1.004-1.331-2.342-1.997-4.015-1.997-1.636 0-2.956.654-3.96 1.961-1.003 1.308-1.505 3.18-1.505 5.615z" fill-opacity="0.3"/></symbol><symbol id="icon-logo4" viewBox="0 0 123 24"><path d="M8.92 0c2.51 0 4.702.501 6.579 1.504 1.876 1.003 3.323 2.416 4.34 4.24C20.88 7.544 21.4 9.63 21.4 12c0 2.348-.52 4.433-1.56 6.256-1.017 1.824-2.475 3.237-4.374 4.24C13.588 23.499 11.406 24 8.919 24H0V0h8.92zm-.374 18.94c2.194 0 3.9-.604 5.121-1.812C14.888 15.92 15.5 14.211 15.5 12c0-2.21-.61-3.932-1.832-5.162-1.22-1.231-2.928-1.847-5.12-1.847H5.798v13.95h2.747zM30.813 19.214h10.242V24H24.234v-4.444l10.174-14.77H24.234V0h16.821v4.444l-10.242 14.77zM50.643 0v24h-5.8V0h5.8zM68.649 24l-8.004-10.598V24h-5.8V0h5.8v10.53L68.581 0h6.817l-9.225 11.76L75.737 24h-7.088zM90.634 24l-4.951-9.06h-1.39V24h-5.8V0h9.733c1.877 0 3.47.33 4.782.991 1.334.661 2.329 1.573 2.985 2.735.655 1.14.983 2.416.983 3.83 0 1.595-.452 3.02-1.356 4.273-.882 1.254-2.194 2.143-3.934 2.667L97.18 24h-6.546zm-6.342-13.197h3.595c1.063 0 1.854-.262 2.374-.786.543-.524.814-1.265.814-2.222 0-.912-.271-1.63-.814-2.154-.52-.524-1.311-.786-2.374-.786h-3.595v5.948zM115.437 19.76h-8.885L105.127 24h-6.07l8.614-24h6.715L123 24h-6.138l-1.425-4.24zm-1.492-4.512l-2.951-8.786-2.916 8.786h5.867z" fill-opacity="0.3"/></symbol><symbol id="icon-sofa" viewBox="0 0 52 38"><path d="M27.167 5.333A4.65 4.65 0 0131.833.667H40a4.68 4.68 0 014.667 4.666v5.04C41.96 11.33 40 13.897 40 16.93v4.737H27.167V5.333zM12 16.907v4.76h12.833V5.333A4.65 4.65 0 0020.167.667H12a4.68 4.68 0 00-4.667 4.666v5.017C10.04 11.307 12 13.897 12 16.907zm34.207-4.504c-2.287.374-3.874 2.544-3.874 4.877V24H9.667v-7a4.667 4.667 0 00-9.334 0v11.667A4.68 4.68 0 005 33.333V38h4.667v-4.667h32.666V38H47v-4.667a4.68 4.68 0 004.667-4.666V17c0-2.823-2.544-5.087-5.46-4.597z"/></symbol><symbol id="icon-tools" viewBox="0 0 48 44"><path d="M28.16 29.401l4.95-4.949L47.1 38.443l-4.949 4.949-13.99-13.99zm8.673-12.068c4.504 0 8.167-3.663 8.167-8.166 0-1.354-.373-2.614-.957-3.734l-6.3 6.3-3.476-3.476 6.3-6.3C39.447 1.373 38.187 1 36.833 1c-4.503 0-8.166 3.663-8.166 8.167 0 .956.186 1.866.49 2.706L24.84 16.19l-4.153-4.153 1.656-1.657-3.29-3.29L24 2.143a7 7 0 00-9.893 0l-8.26 8.26 3.29 3.29h-6.58L.9 15.35l8.26 8.26 1.657-1.657V15.35l3.29 3.29 1.656-1.657 4.154 4.154-17.29 17.29 4.946 4.946 26.554-26.53c.84.304 1.75.49 2.706.49z"/></symbol> <view id="icon-building-view-blue" viewBox="0 0 45 48"/><view id="icon-building-view-dark" viewBox="0 58 45 48"/><view id="icon-building-view-white" viewBox="0 116 45 48"/><view id="icon-check-view-blue" viewBox="0 174 78 60"/><view id="icon-check-view-dark" viewBox="0 244 78 60"/><view id="icon-check-view-white" viewBox="0 314 78 60"/><view id="icon-checkincircle-view-blue" viewBox="0 384 56 56"/><view id="icon-checkincircle-view-dark" viewBox="0 450 56 56"/><view id="icon-checkincircle-view-white" viewBox="0 516 56 56"/><view id="icon-drafting-view-blue" viewBox="0 582 56 56"/><view id="icon-drafting-view-dark" viewBox="0 648 56 56"/><view id="icon-drafting-view-white" viewBox="0 714 56 56"/><view id="icon-logo-view-blue" viewBox="0 780 214 28"/><view id="icon-logo-view-dark" viewBox="0 818 214 28"/><view id="icon-logo-view-white" viewBox="0 856 214 28"/><view id="icon-logo2-view-blue" viewBox="0 894 89 30"/><view id="icon-logo2-view-dark" viewBox="0 934 89 30"/><view id="icon-logo2-view-white" viewBox="0 974 89 30"/><view id="icon-logo3-view-blue" viewBox="0 1014 127 28"/><view id="icon-logo3-view-dark" viewBox="0 1052 127 28"/><view id="icon-logo3-view-white" viewBox="0 1090 127 28"/><view id="icon-logo4-view-blue" viewBox="0 1128 123 24"/><view id="icon-logo4-view-dark" viewBox="0 1162 123 24"/><view id="icon-logo4-view-white" viewBox="0 1196 123 24"/><view id="icon-sofa-view-blue" viewBox="0 1230 52 38"/><view id="icon-sofa-view-dark" viewBox="0 1278 52 38"/><view id="icon-sofa-view-white" viewBox="0 1326 52 38"/><view id="icon-tools-view-blue" viewBox="0 1374 48 44"/><view id="icon-tools-view-dark" viewBox="0 1428 48 44"/><view id="icon-tools-view-white" viewBox="0 1482 48 44"/> <use xlink:href="#icon-building" x="0" y="0" width="45" height="48" style="fill:#056088"/><use xlink:href="#icon-building" x="0" y="58" width="45" height="48" style="fill:#434343"/><use xlink:href="#icon-building" x="0" y="116" width="45" height="48" style="fill:#ffffff"/><use xlink:href="#icon-check" x="0" y="174" width="78" height="60" style="fill:#056088"/><use xlink:href="#icon-check" x="0" y="244" width="78" height="60" style="fill:#434343"/><use xlink:href="#icon-check" x="0" y="314" width="78" height="60" style="fill:#ffffff"/><use xlink:href="#icon-checkincircle" x="0" y="384" width="56" height="56" style="fill:#056088"/><use xlink:href="#icon-checkincircle" x="0" y="450" width="56" height="56" style="fill:#434343"/><use xlink:href="#icon-checkincircle" x="0" y="516" width="56" height="56" style="fill:#ffffff"/><use xlink:href="#icon-drafting" x="0" y="582" width="56" height="56" style="fill:#056088"/><use xlink:href="#icon-drafting" x="0" y="648" width="56" height="56" style="fill:#434343"/><use xlink:href="#icon-drafting" x="0" y="714" width="56" height="56" style="fill:#ffffff"/><use xlink:href="#icon-logo" x="0" y="780" width="214" height="28" style="fill:#056088"/><use xlink:href="#icon-logo" x="0" y="818" width="214" height="28" style="fill:#434343"/><use xlink:href="#icon-logo" x="0" y="856" width="214" height="28" style="fill:#ffffff"/><use xlink:href="#icon-logo2" x="0" y="894" width="89" height="30" style="fill:#056088"/><use xlink:href="#icon-logo2" x="0" y="934" width="89" height="30" style="fill:#434343"/><use xlink:href="#icon-logo2" x="0" y="974" width="89" height="30" style="fill:#ffffff"/><use xlink:href="#icon-logo3" x="0" y="1014" width="127" height="28" style="fill:#056088"/><use xlink:href="#icon-logo3" x="0" y="1052" width="127" height="28" style="fill:#434343"/><use xlink:href="#icon-logo3" x="0" y="1090" width="127" height="28" style="fill:#ffffff"/><use xlink:href="#icon-logo4" x="0" y="1128" width="123" height="24" style="fill:#056088"/><use xlink:href="#icon-logo4" x="0" y="1162" width="123" height="24" style="fill:#434343"/><use xlink:href="#icon-logo4" x="0" y="1196" width="123" height="24" style="fill:#ffffff"/><use xlink:href="#icon-sofa" x="0" y="1230" width="52" height="38" style="fill:#056088"/><use xlink:href="#icon-sofa" x="0" y="1278" width="52" height="38" style="fill:#434343"/><use xlink:href="#icon-sofa" x="0" y="1326" width="52" height="38" style="fill:#ffffff"/><use xlink:href="#icon-tools" x="0" y="1374" width="48" height="44" style="fill:#056088"/><use xlink:href="#icon-tools" x="0" y="1428" width="48" height="44" style="fill:#434343"/><use xlink:href="#icon-tools" x="0" y="1482" width="48" height="44" style="fill:#ffffff"/></svg>